<svg width="36" height="36" viewBox="0 0 36 36" fill="none" xmlns="http://www.w3.org/2000/svg">
<circle cx="18" cy="18" r="17.5" stroke="white"/>
<path fill-rule="evenodd" clip-rule="evenodd" d="M25.2865 25.2808C25.1037 25.4636 24.8074 25.4636 24.6246 25.2808L10.7247 11.3808C10.5419 11.198 10.5419 10.9017 10.7247 10.7189C10.9075 10.5361 11.2038 10.5361 11.3866 10.7189L25.2865 24.6189C25.4693 24.8017 25.4693 25.098 25.2865 25.2808Z" fill="white" stroke="white" stroke-width="0.5"/>
<path fill-rule="evenodd" clip-rule="evenodd" d="M10.7194 25.2808C10.9021 25.4636 11.1985 25.4636 11.3813 25.2808L25.2811 11.3808C25.4639 11.198 25.4639 10.9017 25.2811 10.7189C25.0984 10.5361 24.802 10.5361 24.6192 10.7189L10.7194 24.6189C10.5366 24.8017 10.5366 25.098 10.7194 25.2808Z" fill="white" stroke="white" stroke-width="0.5"/>
</svg>
