<svg width="298" height="18" viewBox="0 0 298 18" fill="none" xmlns="http://www.w3.org/2000/svg">
<path d="M4.16803 18C3.57603 18 3.03203 17.856 2.53603 17.568C2.04003 17.28 1.64803 16.888 1.36003 16.392C1.07203 15.896 0.928031 15.352 0.928031 14.76V12.936H3.80803V14.664C3.80803 14.792 3.84803 14.896 3.92803 14.976C4.02403 15.056 4.12803 15.096 4.24003 15.096H14.872C14.984 15.096 15.08 15.056 15.16 14.976C15.256 14.896 15.304 14.792 15.304 14.664V0.719999H18.208V14.76C18.208 15.352 18.056 15.896 17.752 16.392C17.464 16.888 17.072 17.28 16.576 17.568C16.096 17.856 15.56 18 14.968 18H4.16803ZM20.9506 18V3.96C20.9506 3.368 21.0946 2.824 21.3826 2.328C21.6706 1.832 22.0626 1.44 22.5586 1.152C23.0546 0.863999 23.5986 0.719999 24.1906 0.719999H34.9906C35.5826 0.719999 36.1186 0.863999 36.5986 1.152C37.0946 1.44 37.4866 1.832 37.7746 2.328C38.0786 2.824 38.2306 3.368 38.2306 3.96V18H35.3266V12.072H23.8306V18H20.9506ZM23.8306 9.192H35.3266V4.056C35.3266 3.928 35.2786 3.824 35.1826 3.744C35.1026 3.664 35.0066 3.624 34.8946 3.624H24.2626C24.1506 3.624 24.0466 3.664 23.9506 3.744C23.8706 3.824 23.8306 3.928 23.8306 4.056V9.192ZM44.1571 18C43.5651 18 43.0211 17.856 42.5251 17.568C42.0291 17.28 41.6371 16.888 41.3491 16.392C41.0611 15.896 40.9171 15.352 40.9171 14.76V0.719999H43.7971V14.664C43.7971 14.792 43.8371 14.896 43.9171 14.976C44.0131 15.056 44.1171 15.096 44.2291 15.096H54.8611C54.9731 15.096 55.0691 15.056 55.1491 14.976C55.2451 14.896 55.2931 14.792 55.2931 14.664V0.719999H58.1971V14.76C58.1971 15.352 58.0451 15.896 57.7411 16.392C57.4531 16.888 57.0611 17.28 56.5651 17.568C56.0851 17.856 55.5491 18 54.9571 18H44.1571ZM60.8401 18V0.719999H64.1281L75.2161 13.92V0.719999H78.1201V18H74.8321L63.7201 4.776V18H60.8401ZM80.8568 18V3.96C80.8568 3.368 81.0008 2.824 81.2888 2.328C81.5768 1.832 81.9688 1.44 82.4648 1.152C82.9608 0.863999 83.5048 0.719999 84.0968 0.719999H94.8968C95.4888 0.719999 96.0248 0.863999 96.5048 1.152C97.0008 1.44 97.3928 1.832 97.6808 2.328C97.9848 2.824 98.1368 3.368 98.1368 3.96V18H95.2328V12.072H83.7368V18H80.8568ZM83.7368 9.192H95.2328V4.056C95.2328 3.928 95.1848 3.824 95.0888 3.744C95.0088 3.664 94.9128 3.624 94.8008 3.624H84.1688C84.0568 3.624 83.9528 3.664 83.8568 3.744C83.7768 3.824 83.7368 3.928 83.7368 4.056V9.192ZM108.02 18V0.719999H111.308L117.788 8.448L124.244 0.719999H127.556V18H124.652V4.752L117.788 12.936L110.9 4.776V18H108.02ZM133.477 18C132.885 18 132.341 17.856 131.845 17.568C131.349 17.28 130.957 16.888 130.669 16.392C130.381 15.896 130.237 15.352 130.237 14.76V0.719999H133.117V14.664C133.117 14.792 133.157 14.896 133.237 14.976C133.333 15.056 133.437 15.096 133.549 15.096H144.181C144.293 15.096 144.389 15.056 144.469 14.976C144.565 14.896 144.613 14.792 144.613 14.664V0.719999H147.517V14.76C147.517 15.352 147.365 15.896 147.061 16.392C146.773 16.888 146.381 17.28 145.885 17.568C145.405 17.856 144.869 18 144.277 18H133.477ZM150.04 18V14.736L163.264 3.624H150.04V0.719999H167.32V3.984L154.096 15.096H167.32V18H150.04ZM169.679 18V0.719999H172.535V18H169.679ZM175.145 18V0.719999H178.049V7.92H182.465L188.489 0.719999H191.729V1.416L185.057 9.36L191.729 17.304V18H188.489L182.465 10.8H178.049V18H175.145ZM193.662 18V3.96C193.662 3.368 193.806 2.824 194.094 2.328C194.382 1.832 194.774 1.44 195.27 1.152C195.766 0.863999 196.31 0.719999 196.902 0.719999H207.702C208.294 0.719999 208.83 0.863999 209.31 1.152C209.806 1.44 210.198 1.832 210.486 2.328C210.79 2.824 210.942 3.368 210.942 3.96V18H208.038V12.072H196.542V18H193.662ZM196.542 9.192H208.038V4.056C208.038 3.928 207.99 3.824 207.894 3.744C207.814 3.664 207.718 3.624 207.606 3.624H196.974C196.862 3.624 196.758 3.664 196.662 3.744C196.582 3.824 196.542 3.928 196.542 4.056V9.192ZM220.848 18V11.4C220.848 10.808 220.992 10.272 221.28 9.792C221.568 9.296 221.952 8.912 222.432 8.64C222.928 8.352 223.472 8.208 224.064 8.208H234.744C234.856 8.208 234.952 8.168 235.032 8.088C235.128 7.992 235.176 7.88 235.176 7.752V4.032C235.176 3.904 235.128 3.8 235.032 3.72C234.952 3.624 234.856 3.576 234.744 3.576H224.16C224.032 3.576 223.92 3.624 223.824 3.72C223.744 3.8 223.704 3.904 223.704 4.032V5.088H220.848V3.936C220.848 3.328 220.992 2.784 221.28 2.304C221.568 1.824 221.952 1.44 222.432 1.152C222.928 0.863999 223.472 0.719999 224.064 0.719999H234.816C235.408 0.719999 235.944 0.863999 236.424 1.152C236.92 1.44 237.312 1.824 237.6 2.304C237.888 2.784 238.032 3.328 238.032 3.936V7.848C238.032 8.44 237.888 8.984 237.6 9.48C237.312 9.96 236.92 10.352 236.424 10.656C235.944 10.944 235.408 11.088 234.816 11.088H224.16C224.032 11.088 223.92 11.128 223.824 11.208C223.744 11.288 223.704 11.392 223.704 11.52V14.688C223.704 14.816 223.744 14.928 223.824 15.024C223.92 15.104 224.032 15.144 224.16 15.144H238.032V18H220.848ZM243.986 18C243.394 18 242.85 17.848 242.354 17.544C241.874 17.224 241.49 16.808 241.202 16.296C240.914 15.784 240.77 15.24 240.77 14.664V3.984C240.77 3.392 240.914 2.848 241.202 2.352C241.49 1.856 241.874 1.464 242.354 1.176C242.85 0.871999 243.394 0.719999 243.986 0.719999H254.738C255.33 0.719999 255.866 0.871999 256.346 1.176C256.842 1.464 257.234 1.856 257.522 2.352C257.81 2.848 257.954 3.392 257.954 3.984V14.664C257.954 15.24 257.81 15.784 257.522 16.296C257.234 16.808 256.842 17.224 256.346 17.544C255.866 17.848 255.33 18 254.738 18H243.986ZM244.778 15H254.666C254.778 15 254.874 14.96 254.954 14.88C255.05 14.784 255.098 14.68 255.098 14.568V6.432L244.778 15ZM243.626 12.216L253.946 3.648H244.082C243.954 3.648 243.842 3.696 243.746 3.792C243.666 3.872 243.626 3.968 243.626 4.08V12.216ZM260.786 18V11.4C260.786 10.808 260.93 10.272 261.218 9.792C261.506 9.296 261.89 8.912 262.37 8.64C262.866 8.352 263.41 8.208 264.002 8.208H274.682C274.794 8.208 274.89 8.168 274.97 8.088C275.066 7.992 275.114 7.88 275.114 7.752V4.032C275.114 3.904 275.066 3.8 274.97 3.72C274.89 3.624 274.794 3.576 274.682 3.576H264.098C263.97 3.576 263.858 3.624 263.762 3.72C263.682 3.8 263.642 3.904 263.642 4.032V5.088H260.786V3.936C260.786 3.328 260.93 2.784 261.218 2.304C261.506 1.824 261.89 1.44 262.37 1.152C262.866 0.863999 263.41 0.719999 264.002 0.719999H274.754C275.346 0.719999 275.882 0.863999 276.362 1.152C276.858 1.44 277.25 1.824 277.538 2.304C277.826 2.784 277.97 3.328 277.97 3.936V7.848C277.97 8.44 277.826 8.984 277.538 9.48C277.25 9.96 276.858 10.352 276.362 10.656C275.882 10.944 275.346 11.088 274.754 11.088H264.098C263.97 11.088 263.858 11.128 263.762 11.208C263.682 11.288 263.642 11.392 263.642 11.52V14.688C263.642 14.816 263.682 14.928 263.762 15.024C263.858 15.104 263.97 15.144 264.098 15.144H277.97V18H260.786ZM283.852 18C283.244 18 282.7 17.856 282.22 17.568C281.74 17.264 281.348 16.872 281.044 16.392C280.756 15.912 280.612 15.376 280.612 14.784V13.896H283.492V14.688C283.492 14.816 283.532 14.928 283.612 15.024C283.708 15.104 283.812 15.144 283.924 15.144H294.508C294.636 15.144 294.74 15.104 294.82 15.024C294.916 14.928 294.964 14.816 294.964 14.688V11.112C294.964 10.984 294.916 10.88 294.82 10.8C294.74 10.72 294.636 10.68 294.508 10.68H283.66V7.8H293.812C293.924 7.8 294.02 7.76 294.1 7.68C294.196 7.584 294.244 7.48 294.244 7.368V4.032C294.244 3.904 294.196 3.8 294.1 3.72C294.02 3.624 293.924 3.576 293.812 3.576H283.924C283.812 3.576 283.708 3.624 283.612 3.72C283.532 3.8 283.492 3.904 283.492 4.032V5.04H280.612V3.936C280.612 3.328 280.756 2.784 281.044 2.304C281.348 1.824 281.74 1.44 282.22 1.152C282.7 0.863999 283.244 0.719999 283.852 0.719999H293.908C294.5 0.719999 295.036 0.863999 295.516 1.152C296.012 1.44 296.404 1.824 296.692 2.304C296.98 2.784 297.124 3.328 297.124 3.936V7.464C297.124 7.656 297.1 7.856 297.052 8.064C297.02 8.272 296.972 8.464 296.908 8.64C297.212 8.976 297.436 9.352 297.58 9.768C297.74 10.184 297.82 10.6 297.82 11.016V14.784C297.82 15.376 297.676 15.912 297.388 16.392C297.1 16.872 296.708 17.264 296.212 17.568C295.732 17.856 295.196 18 294.604 18H283.852Z" fill="white"/>
</svg>
